<svg width="5764" height="500" viewBox="0 0 5764 500" fill="none" xmlns="http://www.w3.org/2000/svg">
<path d="M1120.98 6.26741H1055.58L879.346 404.596L691.406 6.26741H623.94L855.251 493.733H900.688L1120.98 6.26741Z" fill="url(#paint0_linear)"/>
<path d="M2002.99 493.733H2351.34V434.54H2065.64V6.26741H2002.99V493.733Z" fill="url(#paint1_linear)"/>
<path d="M3700.87 493.733V6.26741H3640.29V379.526L3345.64 6.26741H3296.08V493.733H3356.66V121.866L3651.99 493.733H3700.87Z" fill="url(#paint2_linear)"/>
<path d="M4383.33 373.955C4350.28 411.56 4302.78 439.415 4236.01 439.415C4123.79 439.415 4048.75 364.206 4048.75 250C4048.75 138.579 4116.22 60.585 4228.43 60.585C4291.77 60.585 4334.45 82.8691 4371.63 120.474L4412.24 80.7799C4379.89 36.9081 4313.8 0 4227.06 0C4077.67 0 3983.35 110.028 3983.35 250C3983.35 401.811 4079.73 500 4231.87 500C4310.36 500 4382.64 465.877 4419.13 414.345L4383.33 373.955Z" fill="url(#paint3_linear)"/>
<path d="M5039.73 493.733H5102.37V6.26741H5039.73V216.574H4752.65V6.26741H4690.01V493.733H4752.65V275.766H5039.73V493.733Z" fill="url(#paint4_linear)"/>
<path d="M0 493.733H64.0237L234.753 93.3148L406.86 493.733H472.26L260.914 4.87466H211.347L0 493.733Z" fill="url(#paint5_linear)"/>
<path d="M1272.24 493.733H1336.27L1507 93.3148L1679.1 493.733H1744.5L1533.16 4.87466H1483.59L1272.24 493.733Z" fill="url(#paint6_linear)"/>
<path d="M2565.33 493.733H2629.35L2800.08 93.3148L2972.19 493.733H3037.59L2826.24 4.87466H2776.68L2565.33 493.733Z" fill="url(#paint7_linear)"/>
<path d="M5757.8 275.07V217.27H5410.84V275.07H5757.8Z" fill="url(#paint8_linear)"/>
<path d="M5757.8 65.4596V6.26741H5410.84V65.4596H5757.8Z" fill="url(#paint9_linear)"/>
<path d="M5410.84 493.733H5764V434.54H5410.84V493.733Z" fill="url(#paint10_linear)"/>
<defs>
<linearGradient id="paint0_linear" x1="-0.000171781" y1="500" x2="21.2482" y2="-179.563" gradientUnits="userSpaceOnUse">
<stop stop-color="#1890FF"/>
<stop offset="1" stop-color="#62B3FF"/>
</linearGradient>
<linearGradient id="paint1_linear" x1="-0.000171781" y1="500" x2="21.2482" y2="-179.563" gradientUnits="userSpaceOnUse">
<stop stop-color="#1890FF"/>
<stop offset="1" stop-color="#62B3FF"/>
</linearGradient>
<linearGradient id="paint2_linear" x1="-0.000171781" y1="500" x2="21.2482" y2="-179.563" gradientUnits="userSpaceOnUse">
<stop stop-color="#1890FF"/>
<stop offset="1" stop-color="#62B3FF"/>
</linearGradient>
<linearGradient id="paint3_linear" x1="-0.000171781" y1="500" x2="21.2482" y2="-179.563" gradientUnits="userSpaceOnUse">
<stop stop-color="#1890FF"/>
<stop offset="1" stop-color="#62B3FF"/>
</linearGradient>
<linearGradient id="paint4_linear" x1="-0.000171781" y1="500" x2="21.2482" y2="-179.563" gradientUnits="userSpaceOnUse">
<stop stop-color="#1890FF"/>
<stop offset="1" stop-color="#62B3FF"/>
</linearGradient>
<linearGradient id="paint5_linear" x1="-0.000171781" y1="500" x2="21.2482" y2="-179.563" gradientUnits="userSpaceOnUse">
<stop stop-color="#1890FF"/>
<stop offset="1" stop-color="#62B3FF"/>
</linearGradient>
<linearGradient id="paint6_linear" x1="-0.000171781" y1="500" x2="21.2482" y2="-179.563" gradientUnits="userSpaceOnUse">
<stop stop-color="#1890FF"/>
<stop offset="1" stop-color="#62B3FF"/>
</linearGradient>
<linearGradient id="paint7_linear" x1="-0.000171781" y1="500" x2="21.2482" y2="-179.563" gradientUnits="userSpaceOnUse">
<stop stop-color="#1890FF"/>
<stop offset="1" stop-color="#62B3FF"/>
</linearGradient>
<linearGradient id="paint8_linear" x1="-0.000171781" y1="500" x2="21.2482" y2="-179.563" gradientUnits="userSpaceOnUse">
<stop stop-color="#1890FF"/>
<stop offset="1" stop-color="#62B3FF"/>
</linearGradient>
<linearGradient id="paint9_linear" x1="-0.000171781" y1="500" x2="21.2482" y2="-179.563" gradientUnits="userSpaceOnUse">
<stop stop-color="#1890FF"/>
<stop offset="1" stop-color="#62B3FF"/>
</linearGradient>
<linearGradient id="paint10_linear" x1="-0.000171781" y1="500" x2="21.2482" y2="-179.563" gradientUnits="userSpaceOnUse">
<stop stop-color="#1890FF"/>
<stop offset="1" stop-color="#62B3FF"/>
</linearGradient>
</defs>
</svg>
